<?xml version="1.0" standalone="no"?>
<!DOCTYPE svg PUBLIC "-//W3C//DTD SVG 20010904//EN"
 "http://www.w3.org/TR/2001/REC-SVG-20010904/DTD/svg10.dtd">
<svg version="1.0" xmlns="http://www.w3.org/2000/svg"
 width="260.000000pt" height="260.000000pt" viewBox="0 0 260.000000 260.000000"
 preserveAspectRatio="xMidYMid meet">
<metadata>
Created by potrace 1.11, written by Peter Selinger 2001-2013
</metadata>
<g transform="translate(0.000000,260.000000) scale(0.100000,-0.100000)"
fill="#000000" stroke="none">
<path d="M735 2210 c-38 -10 -135 -39 -215 -66 -80 -26 -149 -49 -155 -50 -23
-6 -184 -67 -236 -90 -33 -15 -62 -36 -70 -50 -17 -33 -14 -369 6 -557 2 -23
7 -69 10 -102 13 -136 37 -245 53 -245 4 0 21 -12 38 -27 17 -16 53 -46 79
-68 27 -22 53 -45 59 -50 6 -6 63 -53 126 -105 63 -52 117 -97 120 -100 20
-21 119 -99 138 -109 13 -7 35 -10 48 -7 13 4 26 7 29 7 26 2 286 148 422 236
46 29 86 53 90 53 5 -1 46 -58 93 -127 87 -130 122 -172 143 -174 41 -5 101 2
227 26 152 28 454 117 536 157 15 7 35 27 43 43 18 34 68 187 97 298 1 4 2 8
4 10 1 1 3 9 5 17 1 8 19 74 39 145 19 72 47 173 61 225 15 52 29 116 32 142
6 53 15 41 -123 164 -106 95 -154 137 -183 160 -13 10 -43 35 -66 54 -23 19
-52 43 -64 53 -12 9 -26 17 -31 17 -6 0 -10 3 -10 8 0 12 -57 34 -103 39 -92
11 -536 2 -667 -13 -25 -3 -61 -12 -80 -20 -34 -14 -38 -14 -115 22 -113 51
-233 95 -275 99 -19 1 -66 -5 -105 -15z"/>
<path d="M1116 532 c-2 -4 -1 -14 4 -22 7 -11 9 -9 7 8 -1 24 -3 26 -11 14z"/>
<path d="M1385 504 c-13 -31 -17 -34 -36 -24 -17 10 -23 8 -34 -7 -13 -17 -14
-17 -20 0 -8 20 -35 19 -51 -2 -9 -11 -11 -11 -11 3 0 15 10 20 30 17 4 0 7 4
7 10 0 6 -9 8 -22 3 -20 -6 -21 -5 -9 10 7 9 9 16 3 16 -13 0 -25 -29 -24 -55
1 -16 0 -17 -4 -2 -3 9 -10 17 -16 17 -6 0 -5 7 3 18 11 14 11 15 -1 5 -10
-10 -17 -10 -27 -1 -11 9 -13 8 -11 -3 2 -10 -9 -15 -40 -17 -30 -2 -40 -7
-35 -15 4 -7 0 -6 -10 2 -20 16 -22 22 -6 18 6 -1 14 5 16 13 4 13 3 13 -6 0
-6 -8 -11 -11 -11 -6 0 5 -7 3 -15 -4 -13 -11 -20 -9 -41 11 -14 13 -24 20
-22 14 2 -5 -1 -12 -7 -13 -5 -2 -18 -8 -28 -13 -9 -6 -23 -6 -30 -2 -20 13
-68 11 -57 -2 6 -7 7 -15 3 -18 -3 -4 -1 -7 6 -7 7 0 11 6 8 13 -3 9 2 13 14
12 27 -2 40 -17 29 -35 -5 -8 -13 -11 -17 -6 -4 5 -2 11 5 13 6 3 9 9 6 14 -3
6 -11 6 -20 -2 -7 -6 -11 -16 -8 -21 4 -6 -3 -5 -15 2 -12 6 -18 16 -15 22 5
8 1 9 -10 5 -10 -4 -15 -3 -11 3 13 21 -11 8 -28 -15 -18 -25 -11 -35 10 -14
13 13 33 4 33 -14 0 -8 -3 -7 -9 2 -5 7 -14 10 -20 7 -6 -4 -8 -12 -5 -18 4
-6 -2 -5 -15 1 -12 7 -27 9 -34 5 -6 -3 1 5 17 18 22 19 26 27 16 33 -8 5 -11
4 -7 -2 4 -6 0 -14 -9 -17 -12 -5 -14 -1 -10 17 3 12 3 16 0 9 -5 -10 -9 -9
-20 5 -13 17 -14 17 -8 -1 6 -16 5 -17 -16 -6 -18 10 -21 9 -15 -1 6 -9 3 -11
-8 -6 -12 4 -14 2 -10 -11 6 -15 5 -15 -10 -3 -9 7 -18 11 -18 7 -1 -3 -2 -9
-3 -13 -1 -5 -5 -14 -9 -20 -5 -8 -4 -13 3 -13 6 0 13 7 16 15 4 8 10 13 14
10 5 -3 11 -1 15 5 4 6 11 7 17 4 7 -4 8 -2 4 4 -4 7 -2 12 3 12 14 0 14 -6 0
-31 -7 -13 -16 -18 -29 -14 -10 3 -21 1 -25 -4 -3 -6 -19 -9 -35 -7 -15 2 -34
0 -41 -5 -7 -4 -19 -3 -26 3 -9 7 -13 7 -13 0 0 -6 5 -14 10 -17 6 -3 10 -12
10 -18 0 -7 -4 -6 -10 3 -6 10 -10 11 -10 3 0 -7 -5 -13 -11 -13 -8 0 -8 4 0
13 7 9 7 17 0 24 -6 6 -1 13 15 21 22 10 24 9 19 -6 -4 -13 -2 -13 11 3 10 11
15 13 11 5 -4 -9 -1 -8 8 3 9 10 18 14 21 8 3 -5 1 -12 -4 -14 -6 -3 -5 -4 2
-2 7 1 12 8 10 14 -1 7 1 10 6 7 4 -2 8 4 8 15 0 24 -16 25 -16 2 -1 -16 -2
-16 -17 2 -14 18 -15 18 -9 1 4 -13 2 -17 -8 -13 -7 3 -19 0 -25 -6 -9 -9 -11
-8 -6 6 4 10 2 17 -5 17 -6 0 -8 -5 -4 -12 5 -8 2 -9 -9 -5 -10 4 -17 1 -17
-5 0 -6 -3 -8 -7 -5 -3 4 -12 2 -20 -4 -17 -14 -17 2 -1 20 9 9 9 12 1 7 -6
-3 -14 0 -16 6 -4 10 -6 10 -6 0 -1 -8 -6 -10 -13 -6 -9 6 -9 3 0 -9 15 -17 9
-37 -11 -37 -8 0 -8 3 2 9 9 6 10 11 2 15 -10 7 -16 -6 -12 -28 1 -5 -5 -6
-13 -3 -9 4 -18 2 -21 -3 -4 -6 -10 -10 -16 -10 -5 0 -4 9 3 19 7 11 15 18 19
15 5 -2 13 6 19 18 9 19 9 21 -2 8 -14 -17 -32 -20 -44 -8 -4 4 -13 3 -21 -3
-10 -9 -13 -8 -13 1 0 8 -3 11 -6 7 -3 -3 3 -19 15 -35 12 -17 21 -37 21 -45
0 -9 5 -19 11 -23 8 -4 9 0 4 15 -8 27 15 25 31 -3 8 -13 13 -15 18 -7 5 8 13
8 27 0 15 -8 24 -7 36 3 14 11 15 10 9 -10 -5 -14 -3 -22 4 -22 6 0 9 4 6 9
-3 5 1 14 8 20 9 8 17 8 20 2 3 -5 0 -12 -6 -14 -10 -4 -10 -6 0 -6 6 -1 12
-6 12 -12 0 -5 -5 -7 -12 -3 -6 4 -8 3 -5 -4 8 -12 32 -10 44 3 4 4 2 5 -4 1
-7 -4 -13 -2 -13 4 0 6 6 13 13 16 7 2 13 15 14 27 2 22 2 22 -11 -2 -9 -15
-16 -20 -20 -12 -4 6 -2 11 4 11 6 0 9 4 6 9 -3 5 1 11 9 15 16 6 29 -9 20
-24 -3 -5 0 -10 7 -10 9 0 9 -3 -2 -10 -13 -9 -13 -11 0 -20 8 -5 20 -10 25
-10 6 0 3 4 -5 10 -8 5 -11 12 -7 17 5 4 17 -3 28 -17 14 -18 17 -20 12 -6 -4
13 -3 17 4 13 6 -4 14 0 17 8 4 13 2 14 -14 5 -16 -8 -20 -8 -18 2 2 8 -4 12
-14 10 -12 -2 -18 4 -18 18 0 11 4 20 10 20 5 0 7 -7 4 -15 -4 -10 0 -13 15
-10 12 2 26 7 33 11 7 4 8 3 4 -4 -4 -7 -2 -12 3 -12 6 0 11 5 11 10 0 6 5 10
11 10 5 0 3 -10 -5 -22 -21 -29 -20 -40 2 -36 9 2 16 -3 14 -9 -3 -18 15 -16
22 2 3 8 11 15 17 15 8 0 9 -4 0 -13 -8 -11 -6 -13 9 -12 11 1 23 4 26 8 4 4
14 1 23 -6 14 -10 14 -10 4 4 -7 9 -9 20 -5 24 4 5 1 5 -5 1 -7 -4 -13 -3 -13
2 0 6 6 12 13 15 16 6 53 -20 43 -30 -4 -4 -11 -1 -16 7 -6 8 -10 11 -10 5 0
-5 5 -17 11 -25 8 -11 12 -12 16 -2 2 6 8 10 13 7 4 -3 7 3 6 13 -1 14 7 17
42 17 27 0 46 5 52 15 5 8 10 11 10 5 -1 -20 -26 -40 -52 -42 -16 -1 -28 2
-28 7 0 6 -5 10 -11 10 -8 0 -7 -5 1 -16 16 -18 56 -41 46 -26 -3 6 -2 13 4
17 5 3 10 1 10 -5 0 -6 11 1 24 17 l24 28 33 -18 c19 -10 26 -16 17 -13 -10 3
-20 1 -24 -5 -10 -17 3 -22 25 -10 16 9 22 8 31 -6 11 -17 11 -17 6 0 -3 9 -1
17 5 17 6 0 7 5 3 12 -4 7 -3 8 4 4 6 -4 9 -13 5 -21 -6 -18 1 -19 27 -5 15 8
22 6 30 -7 11 -17 11 -17 6 0 -4 13 0 17 17 17 18 0 19 -2 7 -10 -20 -13 -4
-13 20 0 14 8 21 6 28 -6 6 -11 12 -13 16 -6 4 6 13 9 21 6 8 -4 13 -9 11 -13
-3 -4 3 -7 13 -7 10 0 18 6 18 12 0 7 -7 9 -16 6 -14 -5 -14 -4 -1 13 8 11 10
16 3 11 -8 -4 -11 -2 -8 6 3 7 15 20 28 27 21 13 22 13 4 -6 -16 -19 -14 -33
5 -33 5 0 7 4 3 9 -6 10 11 24 32 27 6 1 14 -4 17 -12 6 -15 -15 -15 -25 0 -4
4 -10 3 -13 -3 -4 -6 -2 -11 5 -11 7 0 4 -7 -7 -16 -10 -8 -14 -13 -7 -10 6 4
14 2 18 -4 4 -7 12 -7 24 0 10 5 20 7 23 5 3 -3 5 2 5 10 0 8 -5 12 -11 9 -6
-3 -3 1 7 10 11 8 26 12 35 9 9 -4 13 -2 9 4 -4 6 1 17 11 24 15 12 16 12 6
-1 -5 -8 -10 -22 -9 -30 0 -8 -4 -18 -9 -22 -6 -4 -7 -10 -3 -15 9 -9 28 17
21 29 -3 4 0 8 6 8 6 0 9 4 6 9 -4 5 2 8 11 7 10 -2 21 4 25 13 6 14 7 13 7
-2 1 -10 5 -16 10 -12 5 3 12 1 16 -5 3 -5 16 -10 28 -10 13 0 33 -7 45 -16
19 -13 23 -13 28 -1 5 15 33 19 35 5 1 -4 2 -12 3 -17 0 -5 4 -13 8 -17 8 -8
2 31 -7 45 -3 5 -1 12 4 15 5 4 12 -2 16 -13 3 -11 13 -22 21 -25 8 -3 12 -2
9 3 -10 16 15 23 33 9 15 -11 15 -11 5 3 -7 9 -10 19 -6 23 4 4 13 -4 20 -16
l14 -23 -7 25 c-6 22 -5 23 9 11 9 -7 14 -18 10 -24 -3 -5 -2 -7 4 -4 6 4 9
18 7 32 -1 17 2 25 9 22 7 -2 11 -11 9 -20 -1 -8 2 -18 8 -22 6 -4 7 1 3 12
-6 16 -5 16 10 4 25 -20 20 -2 -5 21 -21 18 -21 19 -3 13 11 -4 26 -8 33 -8 6
0 12 -4 12 -9 0 -4 5 -8 11 -8 8 0 7 6 -2 17 -12 15 -12 16 4 10 10 -4 21 -7
23 -7 3 0 0 -8 -5 -18 -7 -14 -6 -19 4 -19 7 0 11 7 7 15 -4 11 -2 13 9 7 12
-8 12 -6 0 9 -11 13 -11 20 -3 28 7 7 12 16 12 21 0 5 -9 -1 -20 -14 -10 -13
-19 -19 -20 -12 0 6 5 15 10 18 6 3 10 10 10 15 0 10 -19 8 -39 -4 -8 -5 -16
-3 -22 5 -6 9 -9 10 -9 2 0 -19 20 -26 35 -13 9 7 15 8 15 2 0 -5 -6 -14 -13
-20 -14 -12 -54 8 -70 34 -4 8 -15 10 -25 7 -15 -6 -16 -5 -2 12 14 18 14 18
-9 2 -20 -13 -28 -14 -40 -4 -12 9 -13 9 -7 0 4 -7 3 -13 -3 -13 -5 0 -8 -11
-6 -25 1 -14 -2 -28 -7 -31 -4 -3 -6 -10 -3 -15 4 -5 1 -9 -4 -9 -6 0 -11 6
-11 13 0 7 -3 8 -8 2 -9 -12 -32 -18 -33 -7 -6 31 -3 60 5 55 5 -3 6 -2 3 4
-3 5 0 10 8 10 8 0 11 -5 8 -10 -4 -6 -1 -7 6 -2 10 6 11 3 1 -14 -6 -12 -15
-19 -21 -16 -5 4 -9 1 -9 -4 0 -6 6 -11 14 -11 17 0 38 24 29 33 -3 4 0 7 7 7
9 0 7 5 -6 15 -16 13 -16 14 -1 9 10 -4 17 -1 17 6 0 6 -4 8 -10 5 -5 -3 -10
0 -10 7 0 8 -5 6 -11 -5 -6 -9 -15 -15 -21 -11 -6 4 -5 10 3 15 9 6 10 9 2 9
-6 0 -18 -6 -25 -12 -7 -7 -22 -15 -32 -16 -17 -3 -18 -2 -7 12 9 11 10 16 2
16 -6 0 -12 -4 -12 -10 -1 -5 -2 -15 -3 -21 -1 -12 -46 -48 -60 -49 -6 0 -2 6
9 13 17 13 17 14 -6 21 -13 5 -30 10 -38 11 -7 2 -19 9 -25 16 -8 9 -8 10 1 5
9 -5 11 -2 6 10 -5 15 -7 15 -16 -2 -7 -13 -5 -20 9 -31 10 -7 13 -13 8 -13
-6 0 -16 6 -23 13 -11 10 -12 8 -7 -10 4 -12 2 -24 -5 -29 -7 -4 -9 -3 -6 4
11 17 -4 43 -24 40 -10 -2 -19 1 -21 6 -2 5 7 10 20 11 12 1 22 -3 22 -9 0 -6
5 -3 11 8 9 14 7 22 -7 35 -11 9 -13 9 -6 2 17 -21 15 -27 -8 -28 -13 -1 -18
2 -13 10 4 7 0 6 -10 -2 -13 -10 -20 -11 -30 -2 -8 6 -17 7 -22 3 -4 -4 -5 3
-2 16 8 33 -1 27 -18 -14z m-365 -20 c0 -17 -22 -18 -38 -2 -14 14 -16 -3 -2
-20 7 -9 7 -9 -2 -2 -8 6 -17 5 -27 -3 -14 -10 -14 -10 -4 4 7 9 10 19 6 22
-3 4 -1 8 5 8 26 3 31 4 38 11 10 10 24 0 24 -18z m171 -1 c7 -10 10 -15 5
-11 -5 4 -17 3 -27 -2 -12 -7 -20 -7 -24 0 -4 6 -3 10 2 9 20 -3 34 2 28 11
-10 17 2 11 16 -7z m237 -5 c2 -9 -5 -18 -14 -22 -14 -5 -15 -4 -4 9 7 9 10
18 7 21 -3 3 -12 -3 -19 -15 -18 -29 -29 -27 -15 3 12 26 40 28 45 4z m-658
-3 c0 -8 -4 -15 -10 -15 -5 0 -7 7 -4 15 4 8 8 15 10 15 2 0 4 -7 4 -15z m285
5 c-3 -5 -1 -10 6 -10 7 0 10 -2 7 -5 -3 -3 -13 -2 -22 1 -14 5 -15 9 -4 15
17 11 20 11 13 -1z m70 -10 c-3 -5 -12 -10 -18 -10 -7 0 -6 4 3 10 19 12 23
12 15 0z m578 -2 c-4 -7 -8 -19 -10 -27 -2 -16 -25 -33 -33 -24 -3 3 1 8 8 10
6 3 9 9 6 14 -4 6 -11 6 -20 -2 -10 -8 -11 -16 -3 -31 8 -14 14 -17 23 -9 10
8 17 7 26 -4 11 -14 7 -19 -13 -16 -4 1 -10 -5 -13 -13 -5 -12 -11 -12 -37 4
-17 10 -34 17 -38 15 -4 -3 -12 2 -19 10 -9 10 -9 15 -1 15 6 0 11 -4 11 -9 0
-13 43 -8 48 7 2 8 -3 10 -15 6 -10 -3 -2 7 17 22 19 16 38 29 41 29 4 0 11 3
15 8 12 11 16 8 7 -5z m-1290 -31 c-3 -5 -9 -3 -14 4 -4 7 -5 17 -2 22 3 5 9
3 14 -4 4 -7 5 -17 2 -22z m942 23 c3 -6 -1 -7 -9 -4 -18 7 -21 14 -7 14 6 0
13 -4 16 -10z m523 -16 l22 -21 -25 2 c-22 3 -30 -5 -26 -27 0 -5 -4 -8 -10
-8 -6 0 -8 8 -5 18 5 14 4 14 -9 -2 -8 -11 -15 -14 -15 -8 0 7 -5 12 -11 12
-5 0 -8 -4 -5 -9 7 -10 -39 -43 -48 -34 -3 4 -6 11 -6 17 0 6 4 5 9 -3 7 -11
12 -8 26 12 9 14 14 30 11 36 -24 38 53 51 92 15z m-1321 5 c-13 -8 -15 -14
-8 -23 8 -10 5 -18 -10 -32 -15 -13 -23 -15 -26 -7 -2 6 -15 10 -28 7 -14 -2
-25 2 -29 12 -3 8 -11 12 -17 8 -8 -4 -9 -3 -5 5 5 7 12 9 19 3 7 -5 21 -12
32 -15 19 -7 19 -6 2 7 -17 13 -17 14 0 21 10 5 21 9 25 9 3 1 9 3 12 6 3 3
15 6 28 7 21 2 21 1 5 -8z m218 -28 c-6 -5 -25 10 -25 20 0 5 6 4 14 -3 8 -7
12 -15 11 -17z m445 23 c0 -8 -19 -13 -24 -6 -3 5 1 9 9 9 8 0 15 -2 15 -3z
m240 0 c0 -8 -19 -13 -24 -6 -3 5 1 9 9 9 8 0 15 -2 15 -3z m110 -3 c0 -6 -4
-12 -8 -15 -5 -3 -9 1 -9 9 0 8 4 15 9 15 4 0 8 -4 8 -9z m-865 -21 c-3 -5
-11 -10 -16 -10 -6 0 -7 5 -4 10 3 6 11 10 16 10 6 0 7 -4 4 -10z m79 -25 c-5
-11 -2 -13 10 -9 9 3 16 9 16 13 0 4 10 7 23 8 19 2 18 0 -8 -14 -16 -8 -37
-22 -47 -30 -11 -10 -18 -11 -23 -3 -3 5 -12 7 -18 3 -7 -4 -6 0 2 10 7 9 17
14 22 11 5 -3 9 2 9 10 0 9 4 16 10 16 5 0 7 -7 4 -15z m136 0 c0 -2 -6 -5
-13 -8 -8 -3 -14 1 -14 8 0 7 6 11 14 8 7 -3 13 -6 13 -8z m177 3 c4 -7 9 -21
10 -30 3 -17 2 -17 -17 -1 -25 21 -25 24 -2 17 14 -5 14 -3 -2 10 -11 9 -15
16 -9 16 7 0 15 -6 20 -12z m216 -38 c3 -11 -3 -16 -21 -15 -17 0 -26 6 -28
19 -2 14 0 16 9 7 20 -20 30 -11 11 10 -19 22 -19 22 3 8 12 -7 24 -20 26 -29z
m-143 -1 c0 -4 -7 -10 -16 -13 -9 -3 -12 -2 -9 5 4 5 1 17 -7 26 -12 15 -11
15 10 2 12 -8 22 -17 22 -20z m80 -1 c0 -15 -15 -8 -28 12 -12 19 -11 20 8 8
11 -7 20 -16 20 -20z m-45 12 c3 -6 -1 -7 -9 -4 -18 7 -21 14 -7 14 6 0 13 -4
16 -10z m-380 -9 c3 -5 1 -12 -4 -15 -5 -3 -11 1 -15 9 -6 16 9 21 19 6z m584
-22 c-16 -10 -23 -4 -14 10 3 6 11 8 17 5 6 -4 5 -9 -3 -15z"/>
<path d="M995 490 c-3 -5 -1 -10 4 -10 6 0 11 5 11 10 0 6 -2 10 -4 10 -3 0
-8 -4 -11 -10z"/>
<path d="M1636 392 c-8 -14 24 -24 39 -12 6 5 16 6 20 2 5 -4 5 -1 1 6 -6 10
-11 10 -23 1 -11 -10 -16 -10 -23 0 -4 8 -10 9 -14 3z"/>
<path d="M1790 444 c0 -22 24 -33 43 -20 22 17 22 21 -3 23 -11 1 -20 -4 -20
-10 0 -7 -4 -6 -10 3 -5 8 -10 10 -10 4z"/>
<path d="M525 440 c-4 -6 -10 -8 -15 -5 -18 11 -19 -13 -1 -29 16 -14 20 -15
30 -2 8 10 9 16 1 21 -6 3 -8 11 -5 16 4 5 4 9 1 9 -3 0 -8 -5 -11 -10z m10
-22 c4 -3 2 -9 -3 -12 -5 -3 -15 1 -21 8 -10 11 -9 14 3 12 9 -1 18 -5 21 -8z"/>
<path d="M756 368 c3 -5 10 -6 15 -3 13 9 11 12 -6 12 -8 0 -12 -4 -9 -9z"/>
<path d="M636 522 c-3 -5 1 -9 9 -9 8 0 12 4 9 9 -3 4 -7 8 -9 8 -2 0 -6 -4
-9 -8z"/>
<path d="M1297 513 c4 -11 3 -14 -6 -9 -10 6 -9 3 0 -13 16 -25 32 -6 18 21
-12 23 -21 24 -12 1z"/>
<path d="M1330 512 c6 -12 15 -20 20 -17 4 3 11 0 13 -5 4 -7 5 -6 3 1 -1 6
-5 9 -8 7 -4 -2 -14 6 -23 17 -16 19 -16 19 -5 -3z"/>
<path d="M1350 526 c0 -2 7 -7 16 -10 8 -3 12 -2 9 4 -6 10 -25 14 -25 6z"/>
<path d="M1430 520 c0 -5 5 -10 11 -10 5 0 7 5 4 10 -3 6 -8 10 -11 10 -2 0
-4 -4 -4 -10z"/>
<path d="M1536 517 c3 -10 9 -15 12 -12 3 3 0 11 -7 18 -10 9 -11 8 -5 -6z"/>
<path d="M1573 515 c0 -7 6 -11 14 -8 7 3 13 6 13 8 0 2 -6 5 -13 8 -8 3 -14
-1 -14 -8z"/>
<path d="M1755 521 c-3 -5 -2 -12 3 -15 5 -3 9 1 9 9 0 17 -3 19 -12 6z"/>
<path d="M433 495 c0 -8 4 -12 9 -9 5 3 6 10 3 15 -9 13 -12 11 -12 -6z"/>
<path d="M545 500 c-3 -6 1 -7 9 -4 18 7 21 14 7 14 -6 0 -13 -4 -16 -10z"/>
<path d="M595 500 c3 -5 8 -10 11 -10 2 0 4 5 4 10 0 6 -5 10 -11 10 -5 0 -7
-4 -4 -10z"/>
<path d="M1616 486 c6 -17 4 -19 -7 -10 -19 14 -59 15 -59 2 0 -6 3 -9 6 -5 4
3 20 -1 36 -9 17 -9 32 -13 36 -10 11 12 7 53 -5 53 -9 0 -11 -7 -7 -21z"/>
<path d="M330 496 c0 -2 8 -10 18 -17 15 -13 16 -12 3 4 -13 16 -21 21 -21 13z"/>
<path d="M1915 491 c-3 -5 -2 -12 3 -15 5 -3 9 1 9 9 0 17 -3 19 -12 6z"/>
<path d="M1877 473 c3 -7 6 -13 8 -13 2 0 5 6 8 13 3 8 -1 14 -8 14 -7 0 -11
-6 -8 -14z"/>
<path d="M265 460 c-3 -6 1 -7 9 -4 18 7 21 14 7 14 -6 0 -13 -4 -16 -10z"/>
<path d="M311 449 c12 -22 12 -32 0 -24 -15 9 -25 -15 -12 -28 9 -9 11 -8 5 6
-4 12 -2 17 7 15 7 -2 14 8 15 23 2 16 -2 26 -11 26 -10 0 -11 -5 -4 -18z"/>
<path d="M715 460 c-3 -5 -1 -10 4 -10 6 0 11 5 11 10 0 6 -2 10 -4 10 -3 0
-8 -4 -11 -10z"/>
<path d="M2045 459 c-4 -6 -5 -12 -2 -15 2 -3 7 2 10 11 7 17 1 20 -8 4z"/>
<path d="M2070 450 c-6 -11 -8 -20 -6 -20 3 0 10 9 16 20 6 11 8 20 6 20 -3 0
-10 -9 -16 -20z"/>
<path d="M341 444 c0 -11 3 -14 6 -6 3 7 2 16 -1 19 -3 4 -6 -2 -5 -13z"/>
<path d="M115 441 c-3 -5 -2 -12 3 -15 5 -3 9 1 9 9 0 17 -3 19 -12 6z"/>
<path d="M206 439 c4 -8 30 -6 38 2 3 3 -5 5 -19 5 -13 0 -22 -3 -19 -7z"/>
<path d="M280 440 c-9 -6 -10 -10 -3 -10 6 0 15 5 18 10 8 12 4 12 -15 0z"/>
<path d="M364 442 c3 -6 -4 -18 -16 -26 -12 -9 -18 -19 -14 -23 4 -4 10 -3 14
2 11 16 34 17 43 3 7 -10 9 -10 9 0 0 7 -7 15 -15 18 -8 4 -13 10 -10 14 3 5
0 12 -6 16 -7 4 -9 3 -5 -4z"/>
<path d="M2020 435 c0 -9 -6 -12 -15 -9 -8 4 -15 2 -15 -4 0 -17 35 -6 38 11
2 10 1 17 -2 17 -3 0 -6 -7 -6 -15z"/>
<path d="M260 410 c6 -11 9 -24 6 -28 -2 -4 4 -8 13 -8 17 0 17 2 -2 28 -24
33 -32 36 -17 8z"/>
<path d="M2036 414 c-9 -24 -7 -31 10 -38 14 -5 15 -4 5 8 -6 7 -9 21 -5 30 3
9 4 16 1 16 -3 0 -8 -7 -11 -16z"/>
<path d="M2130 416 c0 -2 8 -10 18 -17 15 -13 16 -12 3 4 -13 16 -21 21 -21
13z"/>
<path d="M2067 395 c3 -8 9 -12 14 -9 12 7 11 11 -5 17 -10 4 -13 1 -9 -8z"/>
<path d="M1997 387 c-3 -8 1 -14 8 -14 7 0 11 6 8 14 -3 7 -6 13 -8 13 -2 0
-5 -6 -8 -13z"/>
<path d="M2113 385 c0 -8 4 -12 9 -9 5 3 6 10 3 15 -9 13 -12 11 -12 -6z"/>
<path d="M216 378 c3 -4 11 -5 19 -1 21 7 19 12 -4 10 -11 0 -18 -5 -15 -9z"/>
<path d="M375 381 c6 -10 4 -13 -7 -9 -8 4 -15 1 -15 -6 0 -6 8 -12 17 -12 18
0 21 19 5 33 -4 5 -5 2 0 -6z"/>
<path d="M440 374 c0 -5 7 -18 15 -28 8 -11 15 -16 15 -10 0 5 -7 18 -15 28
-8 11 -15 16 -15 10z"/>
<path d="M1519 376 c-5 -4 -6 -36 -1 -37 4 0 15 -2 25 -4 9 -2 15 1 12 5 -3 5
-1 11 5 15 18 11 11 21 -15 21 -14 0 -25 0 -26 0z m31 -17 c0 -15 -18 -19 -23
-6 -3 8 1 14 9 14 8 0 14 -4 14 -8z"/>
<path d="M1016 362 c-2 -4 3 -16 11 -27 13 -16 15 -17 10 -2 -4 9 -2 17 3 17
6 0 10 5 10 10 0 12 -27 14 -34 2z"/>
<path d="M1453 349 c-2 -23 3 -25 10 -4 4 8 3 16 -1 19 -4 3 -9 -4 -9 -15z"/>
<path d="M513 345 c0 -8 4 -12 9 -9 5 3 6 10 3 15 -9 13 -12 11 -12 -6z"/>
<path d="M1575 350 c-3 -5 -1 -10 4 -10 6 0 11 5 11 10 0 6 -2 10 -4 10 -3 0
-8 -4 -11 -10z"/>
<path d="M1605 349 c-4 -6 -5 -12 -2 -15 2 -3 7 2 10 11 7 17 1 20 -8 4z"/>
<path d="M1630 340 c0 -5 5 -10 11 -10 5 0 7 5 4 10 -3 6 -8 10 -11 10 -2 0
-4 -4 -4 -10z"/>
<path d="M1000 331 c0 -6 4 -13 10 -16 6 -3 7 1 4 9 -7 18 -14 21 -14 7z"/>
<path d="M900 326 c0 -2 9 -6 20 -9 11 -3 18 -1 14 4 -5 9 -34 13 -34 5z"/>
</g>
</svg>
